<?xml version="1.0" encoding="UTF-8"?>
<svg version="1.1" xmlns="http://www.w3.org/2000/svg" width="370" height="411">
<path d="M0 0 C2.58994676 0.439294 2.58994676 0.439294 5.51953125 0.3671875 C7.29570489 0.95924538 9.06106175 1.58956858 10.79296875 2.30078125 C13.87044234 3.50443496 16.98759798 4.45320814 20.14453125 5.4296875 C38.63362427 11.44217472 55.50103943 20.84061476 70.21484375 33.51953125 C72.39040951 35.39651921 72.39040951 35.39651921 74.66015625 36.4375 C77.32474359 37.76979367 78.84524909 39.93864817 80.703125 42.2109375 C82.77700442 44.67283307 84.98963553 46.97132656 87.20703125 49.3046875 C97.2606984 60.35616221 113.51953125 79.8001682 113.51953125 95.3671875 C107.15512913 95.84267551 100.79071832 96.21125374 94.41552734 96.50854492 C92.25136891 96.62177638 90.08831178 96.75879576 87.92724609 96.9206543 C70.43867552 98.20669718 70.43867552 98.20669718 65.59802246 95.15634155 C62.00422965 91.75871618 59.89311159 87.67844853 57.51953125 83.3671875 C51.66989016 76.7308915 44.93396509 70.23758624 37.51953125 65.3671875 C36.52953125 65.3671875 35.53953125 65.3671875 34.51953125 65.3671875 C32.85286458 63.70052083 31.18619792 62.03385417 29.51953125 60.3671875 C27.55486712 59.29943526 25.55097766 58.30165285 23.51953125 57.3671875 C22.34772085 56.68849188 21.18117087 56.0006478 20.01953125 55.3046875 C15.99800157 52.98252103 12.22092677 51.3671875 7.51953125 51.3671875 C7.18953125 50.7071875 6.85953125 50.0471875 6.51953125 49.3671875 C5.85953125 49.3671875 5.19953125 49.3671875 4.51953125 49.3671875 C4.51953125 48.7071875 4.51953125 48.0471875 4.51953125 47.3671875 C-1.62043844 46.11521971 -7.76889602 44.93454393 -13.9375 43.83203125 C-15.52435694 43.54196063 -17.10598996 43.2191549 -18.67578125 42.84765625 C-22.94320957 42.11660655 -27.22271743 41.95399506 -31.54296875 41.7421875 C-32.44080078 41.690625 -33.33863281 41.6390625 -34.26367188 41.5859375 C-35.13056641 41.54210937 -35.99746094 41.49828125 -36.890625 41.453125 C-37.67574463 41.4123584 -38.46086426 41.3715918 -39.26977539 41.32958984 C-41.50497688 41.36760431 -43.33432984 41.77414925 -45.48046875 42.3671875 C-46.89649515 42.40977476 -48.3143883 42.40793802 -49.73046875 42.3671875 C-67.99574005 42.15689655 -86.48379816 49.03130778 -102.48046875 57.3671875 C-103.1036499 57.68719727 -103.72683105 58.00720703 -104.36889648 58.33691406 C-108.4122664 60.51196066 -111.34039584 63.04563927 -114.48046875 66.3671875 C-115.88748106 67.28338156 -117.29462815 68.19937108 -118.703125 69.11328125 C-140.83915456 84.73012848 -156.05369471 112.206394 -161.48046875 138.3671875 C-161.15046875 139.0271875 -160.82046875 139.6871875 -160.48046875 140.3671875 C-161.14046875 140.3671875 -161.80046875 140.3671875 -162.48046875 140.3671875 C-162.81046875 142.0171875 -163.14046875 143.6671875 -163.48046875 145.3671875 C-162.82046875 145.3671875 -162.16046875 145.3671875 -161.48046875 145.3671875 C-161.48046875 146.0271875 -161.48046875 146.6871875 -161.48046875 147.3671875 C-162.14046875 147.3671875 -162.80046875 147.3671875 -163.48046875 147.3671875 C-165.64215519 163.50263268 -164.77858383 180.18711027 -163.48046875 196.3671875 C-162.49046875 196.6971875 -161.50046875 197.0271875 -160.48046875 197.3671875 C-161.14046875 197.3671875 -161.80046875 197.3671875 -162.48046875 197.3671875 C-158.61519272 215.65127183 -158.61519272 215.65127183 -149.48046875 231.3671875 C-149.23296875 232.1921875 -148.98546875 233.0171875 -148.73046875 233.8671875 C-145.35548549 243.31714062 -138.91687925 250.82541848 -132.48046875 258.3671875 C-131.56974609 259.46353516 -131.56974609 259.46353516 -130.640625 260.58203125 C-127.95745908 263.94443191 -127.95745908 263.94443191 -124.48046875 266.3671875 C-124.48046875 267.0271875 -124.48046875 267.6871875 -124.48046875 268.3671875 C-123.62775391 268.75003906 -123.62775391 268.75003906 -122.7578125 269.140625 C-120.21844118 270.50831384 -118.24400456 272.12891604 -116.04296875 273.9921875 C-103.1057892 284.47510799 -87.71775706 292.42973883 -71.48046875 296.3671875 C-68.65235842 296.10127808 -68.65235842 296.10127808 -66.48046875 295.3671875 C-66.15046875 296.0271875 -65.82046875 296.6871875 -65.48046875 297.3671875 C-33.60211044 304.79184787 0.54948886 299.42001552 28.61328125 282.57617188 C33.89661583 279.22536849 38.72830112 275.37844994 43.51953125 271.3671875 C44.32777344 270.72265625 45.13601563 270.078125 45.96875 269.4140625 C49.4334408 266.53589004 52.09038555 264.17738023 54.22729492 260.14306641 C56.36781939 256.12975144 58.59246295 252.79997137 62.51953125 250.3671875 C70.77394198 248.15643774 79.7042046 249.14999821 88.14453125 249.5546875 C90.50765368 249.61996086 92.87094897 249.67926523 95.234375 249.73242188 C100.99989048 249.8750432 106.75890403 250.0919506 112.51953125 250.3671875 C112.01292633 254.06993134 111.43852653 257.0503016 109.55078125 260.28515625 C109.14915771 260.97665771 108.74753418 261.66815918 108.33374023 262.38061523 C107.90005127 263.09805908 107.4663623 263.81550293 107.01953125 264.5546875 C106.57101807 265.30500244 106.12250488 266.05531738 105.66040039 266.82836914 C101.80235437 273.15159859 97.45357515 278.83931176 92.51953125 284.3671875 C91.80152344 285.19347656 91.08351563 286.01976562 90.34375 286.87109375 C73.59855932 305.87673646 73.59855932 305.87673646 63.51953125 312.3671875 C62.85953125 312.3671875 62.19953125 312.3671875 61.51953125 312.3671875 C61.18953125 313.3571875 60.85953125 314.3471875 60.51953125 315.3671875 C58.9453125 316.47265625 58.9453125 316.47265625 56.83203125 317.5546875 C52.83951083 319.65138848 48.96104051 321.8793448 45.08203125 324.1796875 C16.47447311 340.59233218 -13.61509447 346.26329639 -46.34375 345.42041016 C-48.19099244 345.37439795 -50.03893373 345.35825135 -51.88671875 345.34765625 C-90.47711952 344.05812553 -126.46935269 325.55534476 -154.13671875 299.5546875 C-156.21576079 297.61424827 -158.34455707 295.79416428 -160.54296875 293.9921875 C-163.22734635 291.59338199 -163.98966842 290.42953985 -165.48046875 287.3671875 C-166.43953125 286.655625 -166.43953125 286.655625 -167.41796875 285.9296875 C-169.91974744 284.03440061 -170.90649907 282.07441535 -172.48046875 279.3671875 C-173.22296875 278.5215625 -173.96546875 277.6759375 -174.73046875 276.8046875 C-177.98308646 273.02143125 -180.2922899 268.69864559 -182.734375 264.3671875 C-183.91251302 262.34300405 -185.16166521 260.3587496 -186.47265625 258.41796875 C-191.74235303 250.4109003 -195.83103467 241.57048483 -198.48046875 232.3671875 C-198.86976563 231.12453125 -199.2590625 229.881875 -199.66015625 228.6015625 C-206.48046875 206.59043808 -206.48046875 206.59043808 -206.48046875 196.3671875 C-207.14046875 196.0371875 -207.80046875 195.7071875 -208.48046875 195.3671875 C-207.82046875 195.3671875 -207.16046875 195.3671875 -206.48046875 195.3671875 C-206.81046875 193.0571875 -207.14046875 190.7471875 -207.48046875 188.3671875 C-208.14046875 188.3671875 -208.80046875 188.3671875 -209.48046875 188.3671875 C-208.81380208 186.3671875 -208.14713542 184.3671875 -207.48046875 182.3671875 C-208.14046875 182.0371875 -208.80046875 181.7071875 -209.48046875 181.3671875 C-208.82046875 181.3671875 -208.16046875 181.3671875 -207.48046875 181.3671875 C-207.81046875 180.3771875 -208.14046875 179.3871875 -208.48046875 178.3671875 C-208.57854893 175.50266924 -208.62175762 172.66861905 -208.60546875 169.8046875 C-208.60353516 168.99854004 -208.60160156 168.19239258 -208.59960938 167.36181641 C-208.55818685 161.63975455 -208.21332223 156.04680198 -207.48046875 150.3671875 C-208.14046875 150.0371875 -208.80046875 149.7071875 -209.48046875 149.3671875 C-208.82046875 149.3671875 -208.16046875 149.3671875 -207.48046875 149.3671875 C-207.3825 148.48160156 -207.28453125 147.59601563 -207.18359375 146.68359375 C-202.48690483 107.77395533 -186.11723827 74.92950662 -159.48046875 46.3671875 C-158.78308594 45.61566406 -158.08570313 44.86414063 -157.3671875 44.08984375 C-147.73642962 34.07174278 -136.50837542 26.24215852 -124.48046875 19.3671875 C-123.85188965 19.00238281 -123.22331055 18.63757813 -122.57568359 18.26171875 C-105.64005085 8.52009343 -87.73808064 2.50620315 -68.48046875 -0.6328125 C-67.52994629 -0.79297852 -66.57942383 -0.95314453 -65.60009766 -1.11816406 C-43.64060597 -4.66924084 -21.92216376 -3.3806421 0 0 Z " fill="#002854" transform="translate(219.48046875,41.6328125)"/>
<path d="M0 0 C1 1 1 1 1.12025452 3.20826721 C1.11803391 4.18311569 1.11581329 5.15796417 1.11352539 6.16235352 C1.11341209 7.81395226 1.11341209 7.81395226 1.11329651 9.49891663 C1.10813522 10.6968132 1.10297394 11.89470978 1.09765625 13.12890625 C1.0962413 14.34827377 1.09482635 15.5676413 1.09336853 16.82395935 C1.08774967 20.7368307 1.07519396 24.64964581 1.0625 28.5625 C1.05748743 31.20768147 1.0529241 33.85286383 1.04882812 36.49804688 C1.03777411 42.99871726 1.02101764 49.49935461 1 56 C2.98 56 4.96 56 7 56 C7 55.34 7 54.68 7 54 C9 54 11 54 13 54 C13.763125 53.95875 14.52625 53.9175 15.3125 53.875 C18.11170849 54.00519574 19.61788925 54.58837881 22 56 C22 55.34 22 54.68 22 54 C22.78890625 54.24363281 22.78890625 54.24363281 23.59375 54.4921875 C26.60423926 55.12751803 29.42418375 55.13205462 32.5 55.125 C33.6240625 55.12757813 34.748125 55.13015625 35.90625 55.1328125 C38.4720699 55.02266367 40.56266427 54.75270662 43 54 C43 54.33 43 54.66 43 55 C45.10409639 55.02701408 47.20829178 55.04640223 49.3125 55.0625 C50.48425781 55.07410156 51.65601563 55.08570313 52.86328125 55.09765625 C56.03059195 55.14899898 56.03059195 55.14899898 59 54 C59 54.66 59 55.32 59 56 C59.7734375 55.505 59.7734375 55.505 60.5625 55 C63.78562307 53.6776931 66.54918768 53.86978067 70 54 C70.33 54 70.66 54 71 54 C72.32 54 73.64 54 75 54 C75 54.66 75 55.32 75 56 C75.99 55.34 76.98 54.68 78 54 C79.32 54 80.64 54 82 54 C82.23976563 53.24203125 82.47953125 52.4840625 82.7265625 51.703125 C84.20158423 48.57209728 85.47830274 47.57848 88.375 45.75 C89.14585937 45.24984375 89.91671875 44.7496875 90.7109375 44.234375 C95.80573407 41.4870103 101.4850565 41.16404902 107.0859375 42.49609375 C113.14423677 44.55034465 117.60120121 47.45218792 120.75 53.1875 C121.36875 54.5796875 121.36875 54.5796875 122 56 C122.66 56.66 123.32 57.32 124 58 C123.34 58 122.68 58 122 58 C122.33 58.66 122.66 59.32 123 60 C123.55055637 66.88195468 121.93640691 72.06200331 118.1875 77.75 C113.79081447 82.27230512 109.24786214 85.00827585 103 86 C97.01763649 85.71160423 91.75199596 85.35869075 86.9375 81.625 C86.298125 80.75875 85.65875 79.8925 85 79 C84.236875 78.236875 83.47375 77.47375 82.6875 76.6875 C82.130625 76.130625 81.57375 75.57375 81 75 C81.33 74.34 81.66 73.68 82 73 C81.04649658 73.0707373 80.09299316 73.14147461 79.1105957 73.21435547 C65.45722343 74.13964278 51.81634607 74.15258839 38.13647461 74.13037109 C35.48047642 74.12675861 32.82467782 74.1258592 30.16870117 74.13037109 C26.29343647 74.13653473 22.41823609 74.13580826 18.54296875 74.1328125 C16.76336006 74.13584885 16.76336006 74.13584885 14.94779968 74.13894653 C13.84507217 74.13579437 12.74234467 74.13264221 11.60620117 74.12939453 C10.64123215 74.12859894 9.67626312 74.12780334 8.68205261 74.12698364 C6 74 6 74 1 73 C1 83.89 1 94.78 1 106 C21.79 106 42.58 106 64 106 C64.33 103.69 64.66 101.38 65 99 C67.5 97.1875 67.5 97.1875 70 96 C70.33 95.34 70.66 94.68 71 94 C78.38700525 91.0451979 86.01457456 91.67332578 93.8125 92.3125 C99.28084647 95.20750695 102.78097065 101.23721578 104.67578125 107.0859375 C105.73078103 113.31424944 105.47305259 118.57114593 102.3359375 124.14453125 C98.8713015 128.95652569 94.6245539 132.14760201 89 134 C81.92587312 134.90937954 75.80261376 134.32048171 70 130 C69.19846982 128.80967284 68.41707528 127.60559826 67.65380859 126.39038086 C65.50514794 123.8381543 64.37581365 123.07907023 61.0713501 122.38381958 C57.31958958 122.18936635 53.60363455 122.21204408 49.8515625 122.31640625 C48.4701082 122.32947632 47.08862126 122.33943385 45.7071228 122.34642029 C42.08621256 122.37303752 38.46729534 122.44169689 34.84716797 122.51934814 C31.14708414 122.59119937 27.44667542 122.62297792 23.74609375 122.65820312 C16.49649114 122.73308112 9.24852573 122.85240948 2 123 C1.67 126.63 1.34 130.26 1 134 C0.34 134 -0.32 134 -1 134 C-1.20625 135.27875 -1.4125 136.5575 -1.625 137.875 C-4.50275172 150.69407586 -14.0693081 160.40897668 -24.81640625 167.23828125 C-38.70451584 174.92360325 -54.43406683 175.49511458 -69.6875 171.8125 C-82.85162773 167.79173852 -93.35959877 159.87571647 -100.4296875 148.0703125 C-105.0981935 138.94233808 -108.16068052 129.43666905 -108.125 119.125 C-108.12757812 118.36445313 -108.13015625 117.60390625 -108.1328125 116.8203125 C-108 115 -108 115 -107 114 C-104.81695287 113.89982554 -102.63065588 113.86918742 -100.4453125 113.8671875 C-99.78796112 113.86623077 -99.13060974 113.86527405 -98.45333862 113.86428833 C-97.059549 113.86360655 -95.66575622 113.8654607 -94.27197266 113.86962891 C-92.14087747 113.87496028 -90.00999469 113.86969276 -87.87890625 113.86328125 C-86.5260412 113.86394237 -85.17317629 113.86522422 -83.8203125 113.8671875 C-81.96817139 113.86887939 -81.96817139 113.86887939 -80.07861328 113.87060547 C-77 114 -77 114 -74 115 C-73.87625 115.825 -73.7525 116.65 -73.625 117.5 C-72.17402658 125.62545114 -70.92875199 132.03339136 -63.9375 137.3125 C-58.04078903 140.69997226 -51.35186348 141.09933834 -44.7578125 139.43359375 C-42.64956807 138.65367948 -42.64956807 138.65367948 -40 137 C-39.67 136.01 -39.34 135.02 -39 134 C-38.01 133.67 -37.02 133.34 -36 133 C-32.62424649 126.30265591 -32.55823981 120.10526317 -32.56762695 112.70898438 C-32.5574353 111.49837341 -32.54724365 110.28776245 -32.53674316 109.04046631 C-32.51184104 105.74346142 -32.49990854 102.44672449 -32.49388909 99.14964104 C-32.48446752 95.69559862 -32.45826128 92.24168313 -32.43388367 88.78771973 C-32.39031851 82.25730712 -32.36171043 75.7269193 -32.33856028 69.19640589 C-32.31145485 61.75735255 -32.2675468 54.31842754 -32.22227156 46.87946606 C-32.12956842 31.5863768 -32.05782236 16.29326334 -32 1 C-28.99227506 0.8341842 -25.984461 0.67042415 -22.9765625 0.5078125 C-21.71307983 0.43784058 -21.71307983 0.43784058 -20.42407227 0.36645508 C-6.51388387 -0.38053617 -6.51388387 -0.38053617 0 0 Z M97 59 C97 59.99 97 60.98 97 62 C96.34 62 95.68 62 95 62 C94.63949494 65.78595012 94.63949494 65.78595012 96.125 67.75 C98.88864689 69.59243126 100.75756763 69.47285472 104 69 C106.0785608 67.42304368 106.0785608 67.42304368 107 65 C107.08024658 62.40110217 107.08024658 62.40110217 106 60 C102.4238557 56.65457469 101.18392945 56.2107137 97 59 Z M84 107 C84 107.66 84 108.32 84 109 C83.38125 108.79375 82.7625 108.5875 82.125 108.375 C81.073125 108.189375 81.073125 108.189375 80 108 C79.34 108.66 78.68 109.32 78 110 C78.32326553 113.59679066 78.32326553 113.59679066 79 117 C83.61009488 118.17008745 83.61009488 118.17008745 87.9375 116.875 C89.39247229 114.30740185 89.58013321 112.90066607 89 110 C86.59141286 108.1375562 86.59141286 108.1375562 84 107 Z " fill="#002854" transform="translate(221,128)"/>
<path d="M0 0 C2.58994676 0.439294 2.58994676 0.439294 5.51953125 0.3671875 C7.29570489 0.95924538 9.06106175 1.58956858 10.79296875 2.30078125 C13.87044234 3.50443496 16.98759798 4.45320814 20.14453125 5.4296875 C38.63362427 11.44217472 55.50103943 20.84061476 70.21484375 33.51953125 C72.39040951 35.39651921 72.39040951 35.39651921 74.66015625 36.4375 C77.32474359 37.76979367 78.84524909 39.93864817 80.703125 42.2109375 C82.77700442 44.67283307 84.98963553 46.97132656 87.20703125 49.3046875 C97.2606984 60.35616221 113.51953125 79.8001682 113.51953125 95.3671875 C107.15512913 95.84267551 100.79071832 96.21125374 94.41552734 96.50854492 C92.25136891 96.62177638 90.08831178 96.75879576 87.92724609 96.9206543 C70.43867552 98.20669718 70.43867552 98.20669718 65.59802246 95.15634155 C62.00422965 91.75871618 59.89311159 87.67844853 57.51953125 83.3671875 C51.66989016 76.7308915 44.93396509 70.23758624 37.51953125 65.3671875 C36.52953125 65.3671875 35.53953125 65.3671875 34.51953125 65.3671875 C32.85286458 63.70052083 31.18619792 62.03385417 29.51953125 60.3671875 C27.55486712 59.29943526 25.55097766 58.30165285 23.51953125 57.3671875 C22.34772085 56.68849188 21.18117087 56.0006478 20.01953125 55.3046875 C15.99800157 52.98252103 12.22092677 51.3671875 7.51953125 51.3671875 C7.18953125 50.7071875 6.85953125 50.0471875 6.51953125 49.3671875 C5.85953125 49.3671875 5.19953125 49.3671875 4.51953125 49.3671875 C4.51953125 48.7071875 4.51953125 48.0471875 4.51953125 47.3671875 C-1.62043844 46.11521971 -7.76889602 44.93454393 -13.9375 43.83203125 C-15.52435694 43.54196063 -17.10598996 43.2191549 -18.67578125 42.84765625 C-22.94320957 42.11660655 -27.22271743 41.95399506 -31.54296875 41.7421875 C-32.44080078 41.690625 -33.33863281 41.6390625 -34.26367188 41.5859375 C-35.13056641 41.54210937 -35.99746094 41.49828125 -36.890625 41.453125 C-37.67574463 41.4123584 -38.46086426 41.3715918 -39.26977539 41.32958984 C-41.50497688 41.36760431 -43.33432984 41.77414925 -45.48046875 42.3671875 C-46.89649515 42.40977476 -48.3143883 42.40793802 -49.73046875 42.3671875 C-67.99574005 42.15689655 -86.48379816 49.03130778 -102.48046875 57.3671875 C-103.1036499 57.68719727 -103.72683105 58.00720703 -104.36889648 58.33691406 C-108.4122664 60.51196066 -111.34039584 63.04563927 -114.48046875 66.3671875 C-115.88748106 67.28338156 -117.29462815 68.19937108 -118.703125 69.11328125 C-140.83915456 84.73012848 -156.05369471 112.206394 -161.48046875 138.3671875 C-161.15046875 139.0271875 -160.82046875 139.6871875 -160.48046875 140.3671875 C-161.14046875 140.3671875 -161.80046875 140.3671875 -162.48046875 140.3671875 C-162.81046875 142.0171875 -163.14046875 143.6671875 -163.48046875 145.3671875 C-162.82046875 145.3671875 -162.16046875 145.3671875 -161.48046875 145.3671875 C-161.48046875 146.0271875 -161.48046875 146.6871875 -161.48046875 147.3671875 C-162.14046875 147.3671875 -162.80046875 147.3671875 -163.48046875 147.3671875 C-165.64215519 163.50263268 -164.77858383 180.18711027 -163.48046875 196.3671875 C-162.49046875 196.6971875 -161.50046875 197.0271875 -160.48046875 197.3671875 C-161.14046875 197.3671875 -161.80046875 197.3671875 -162.48046875 197.3671875 C-158.61519272 215.65127183 -158.61519272 215.65127183 -149.48046875 231.3671875 C-149.23296875 232.1921875 -148.98546875 233.0171875 -148.73046875 233.8671875 C-145.35548549 243.31714062 -138.91687925 250.82541848 -132.48046875 258.3671875 C-131.56974609 259.46353516 -131.56974609 259.46353516 -130.640625 260.58203125 C-127.95745908 263.94443191 -127.95745908 263.94443191 -124.48046875 266.3671875 C-124.48046875 267.0271875 -124.48046875 267.6871875 -124.48046875 268.3671875 C-123.62775391 268.75003906 -123.62775391 268.75003906 -122.7578125 269.140625 C-120.21844118 270.50831384 -118.24400456 272.12891604 -116.04296875 273.9921875 C-103.1057892 284.47510799 -87.71775706 292.42973883 -71.48046875 296.3671875 C-68.65235842 296.10127808 -68.65235842 296.10127808 -66.48046875 295.3671875 C-66.15046875 296.0271875 -65.82046875 296.6871875 -65.48046875 297.3671875 C-33.60211044 304.79184787 0.54948886 299.42001552 28.61328125 282.57617188 C33.89661583 279.22536849 38.72830112 275.37844994 43.51953125 271.3671875 C44.32777344 270.72265625 45.13601563 270.078125 45.96875 269.4140625 C49.4334408 266.53589004 52.09038555 264.17738023 54.22729492 260.14306641 C56.36781939 256.12975144 58.59246295 252.79997137 62.51953125 250.3671875 C70.77394198 248.15643774 79.7042046 249.14999821 88.14453125 249.5546875 C90.50765368 249.61996086 92.87094897 249.67926523 95.234375 249.73242188 C100.99989048 249.8750432 106.75890403 250.0919506 112.51953125 250.3671875 C112.01292633 254.06993134 111.43852653 257.0503016 109.55078125 260.28515625 C109.14915771 260.97665771 108.74753418 261.66815918 108.33374023 262.38061523 C107.90005127 263.09805908 107.4663623 263.81550293 107.01953125 264.5546875 C106.57101807 265.30500244 106.12250488 266.05531738 105.66040039 266.82836914 C101.80235437 273.15159859 97.45357515 278.83931176 92.51953125 284.3671875 C91.80152344 285.19347656 91.08351563 286.01976562 90.34375 286.87109375 C73.59855932 305.87673646 73.59855932 305.87673646 63.51953125 312.3671875 C62.85953125 312.3671875 62.19953125 312.3671875 61.51953125 312.3671875 C61.18953125 313.3571875 60.85953125 314.3471875 60.51953125 315.3671875 C58.9453125 316.47265625 58.9453125 316.47265625 56.83203125 317.5546875 C52.83951083 319.65138848 48.96104051 321.8793448 45.08203125 324.1796875 C16.47447311 340.59233218 -13.61509447 346.26329639 -46.34375 345.42041016 C-48.19099244 345.37439795 -50.03893373 345.35825135 -51.88671875 345.34765625 C-90.47711952 344.05812553 -126.46935269 325.55534476 -154.13671875 299.5546875 C-156.21576079 297.61424827 -158.34455707 295.79416428 -160.54296875 293.9921875 C-163.22734635 291.59338199 -163.98966842 290.42953985 -165.48046875 287.3671875 C-166.43953125 286.655625 -166.43953125 286.655625 -167.41796875 285.9296875 C-169.91974744 284.03440061 -170.90649907 282.07441535 -172.48046875 279.3671875 C-173.22296875 278.5215625 -173.96546875 277.6759375 -174.73046875 276.8046875 C-177.98308646 273.02143125 -180.2922899 268.69864559 -182.734375 264.3671875 C-183.91251302 262.34300405 -185.16166521 260.3587496 -186.47265625 258.41796875 C-191.74235303 250.4109003 -195.83103467 241.57048483 -198.48046875 232.3671875 C-198.86976563 231.12453125 -199.2590625 229.881875 -199.66015625 228.6015625 C-206.48046875 206.59043808 -206.48046875 206.59043808 -206.48046875 196.3671875 C-207.14046875 196.0371875 -207.80046875 195.7071875 -208.48046875 195.3671875 C-207.82046875 195.3671875 -207.16046875 195.3671875 -206.48046875 195.3671875 C-206.81046875 193.0571875 -207.14046875 190.7471875 -207.48046875 188.3671875 C-208.14046875 188.3671875 -208.80046875 188.3671875 -209.48046875 188.3671875 C-208.81380208 186.3671875 -208.14713542 184.3671875 -207.48046875 182.3671875 C-208.14046875 182.0371875 -208.80046875 181.7071875 -209.48046875 181.3671875 C-208.82046875 181.3671875 -208.16046875 181.3671875 -207.48046875 181.3671875 C-207.81046875 180.3771875 -208.14046875 179.3871875 -208.48046875 178.3671875 C-208.57854893 175.50266924 -208.62175762 172.66861905 -208.60546875 169.8046875 C-208.60353516 168.99854004 -208.60160156 168.19239258 -208.59960938 167.36181641 C-208.55818685 161.63975455 -208.21332223 156.04680198 -207.48046875 150.3671875 C-208.14046875 150.0371875 -208.80046875 149.7071875 -209.48046875 149.3671875 C-208.82046875 149.3671875 -208.16046875 149.3671875 -207.48046875 149.3671875 C-207.3825 148.48160156 -207.28453125 147.59601563 -207.18359375 146.68359375 C-202.48690483 107.77395533 -186.11723827 74.92950662 -159.48046875 46.3671875 C-158.78308594 45.61566406 -158.08570313 44.86414063 -157.3671875 44.08984375 C-147.73642962 34.07174278 -136.50837542 26.24215852 -124.48046875 19.3671875 C-123.85188965 19.00238281 -123.22331055 18.63757813 -122.57568359 18.26171875 C-105.64005085 8.52009343 -87.73808064 2.50620315 -68.48046875 -0.6328125 C-67.52994629 -0.79297852 -66.57942383 -0.95314453 -65.60009766 -1.11816406 C-43.64060597 -4.66924084 -21.92216376 -3.3806421 0 0 Z M-82.91796875 4.6171875 C-83.715979 4.83552246 -84.51398926 5.05385742 -85.33618164 5.27880859 C-111.18543596 12.53807449 -134.11419558 25.73116596 -153.48046875 44.3671875 C-154.01526855 44.87088867 -154.55006836 45.37458984 -155.10107422 45.89355469 C-163.72646223 54.04015547 -171.00479276 62.42992636 -177.48046875 72.3671875 C-178.16496094 73.39070313 -178.84945312 74.41421875 -179.5546875 75.46875 C-192.52511965 95.59967612 -199.88003496 117.19712768 -203.83203125 140.6796875 C-204.48046875 144.3671875 -204.48046875 144.3671875 -205.00830078 146.11132812 C-205.70502395 149.44003652 -205.66301861 152.76193436 -205.68359375 156.1484375 C-205.6906987 156.90980011 -205.69780365 157.67116272 -205.7051239 158.45559692 C-205.95315727 182.07540424 -205.95315727 182.07540424 -202.48046875 205.3671875 C-202.23345215 206.43678711 -201.98643555 207.50638672 -201.73193359 208.60839844 C-197.77127584 225.39304881 -192.97978918 240.57394045 -184.41796875 255.6171875 C-183.57576782 257.1021875 -183.57576782 257.1021875 -182.71655273 258.6171875 C-177.63735847 267.40036089 -171.91820651 275.53344883 -165.48046875 283.3671875 C-164.94921387 284.02332031 -164.41795898 284.67945313 -163.87060547 285.35546875 C-163.33838379 285.99871094 -162.80616211 286.64195312 -162.2578125 287.3046875 C-161.7743335 287.89121094 -161.29085449 288.47773438 -160.79272461 289.08203125 C-159.54844491 290.60041791 -159.54844491 290.60041791 -157.48046875 290.3671875 C-156.98546875 291.8521875 -156.98546875 291.8521875 -156.48046875 293.3671875 C-154.95976902 294.94735517 -154.95976902 294.94735517 -153.04296875 296.4921875 C-150.7286652 298.44258113 -148.45341766 300.39276739 -146.25390625 302.47265625 C-136.91158948 311.29942711 -125.96132321 318.59121583 -114.48046875 324.3671875 C-113.92262695 324.65803223 -113.36478516 324.94887695 -112.79003906 325.24853516 C-73.43024566 345.63816538 -26.71961542 347.37171734 15.28125 334.51953125 C29.93142235 329.69119043 44.17719549 322.65092694 56.51953125 313.3671875 C57.56882812 312.59890625 58.618125 311.830625 59.69921875 311.0390625 C74.97445523 299.70211382 89.21021047 286.45920775 99.51953125 270.3671875 C99.86677246 269.82852051 100.21401367 269.28985352 100.57177734 268.73486328 C105.4896987 261.48008982 105.4896987 261.48008982 108.51953125 253.3671875 C102.25821364 253.11253564 95.99823982 252.9380808 89.73291016 252.81787109 C87.604473 252.76774076 85.47637755 252.69961308 83.34912109 252.61279297 C71.36037782 251.6451354 71.36037782 251.6451354 60.46386719 255.4597168 C58.44681313 258.00418089 56.97452943 260.4728845 55.51953125 263.3671875 C40.87867697 279.73709972 23.04004367 289.72949339 2.52929688 296.68115234 C0.87998144 297.24414753 -0.7556456 297.84709277 -2.38671875 298.4609375 C-33.1873509 307.4833449 -70.4258191 303.66545233 -98.73046875 288.8046875 C-100.66329943 287.68633573 -102.58195233 286.54284925 -104.48046875 285.3671875 C-105.29515625 284.86316406 -106.10984375 284.35914063 -106.94921875 283.83984375 C-109.17215901 282.40482923 -111.33113669 280.90988565 -113.48046875 279.3671875 C-114.49947266 278.655625 -114.49947266 278.655625 -115.5390625 277.9296875 C-141.5220438 258.85960948 -160.74267687 227.82314357 -165.8828125 195.86572266 C-166.70366928 189.71736703 -167.16706933 183.56038749 -167.48046875 177.3671875 C-167.54041016 176.20485596 -167.54041016 176.20485596 -167.6015625 175.01904297 C-168.30817465 158.74223216 -166.26302519 141.9539737 -161.48046875 126.3671875 C-161.155625 125.28824219 -160.83078125 124.20929688 -160.49609375 123.09765625 C-152.43292841 98.49395654 -135.22911341 76.6350581 -114.48046875 61.3671875 C-113.10181641 60.34044922 -113.10181641 60.34044922 -111.6953125 59.29296875 C-84.30620412 39.93996485 -46.50046631 35.20554737 -13.78125 40.05078125 C-9.57813106 40.85508726 -5.54067727 42.02882627 -1.48046875 43.3671875 C-0.78969238 43.57617676 -0.09891602 43.78516602 0.61279297 44.00048828 C23.11439178 50.81374172 42.23244951 63.24127278 58.5546875 80.06640625 C59.05234619 80.57292725 59.55000488 81.07944824 60.06274414 81.60131836 C61.51953125 83.3671875 61.51953125 83.3671875 62.70874023 85.74438477 C64.39086369 88.78476685 65.62976397 90.38969932 68.51953125 92.3671875 C75.32047432 93.91227749 82.54610378 93.20794465 89.45703125 92.9296875 C91.40029833 92.88451031 93.3436658 92.84345137 95.28710938 92.80664062 C100.03373756 92.70778323 104.77553104 92.5526858 109.51953125 92.3671875 C108.7050034 87.75894796 107.05472525 83.89905852 104.95703125 79.7421875 C104.60060547 79.03433105 104.24417969 78.32647461 103.87695312 77.59716797 C100.66713588 71.38202535 96.86319046 65.85030761 92.51953125 60.3671875 C91.91753906 59.5628125 91.31554687 58.7584375 90.6953125 57.9296875 C73.21161953 35.0579382 47.23322966 15.95952968 19.359375 8.19140625 C16.51953125 7.3671875 16.51953125 7.3671875 14.26171875 6.390625 C10.17853987 4.86670354 5.97830301 4.13128388 1.70703125 3.3046875 C0.41055664 3.04461914 0.41055664 3.04461914 -0.91210938 2.77929688 C-9.29995914 1.12704873 -17.38012331 0.21066625 -25.921875 0.19921875 C-26.8072142 0.19589035 -27.69255341 0.19256195 -28.60472107 0.18913269 C-30.47125738 0.1840954 -32.3378026 0.18172337 -34.2043457 0.18188477 C-37.01073708 0.17971245 -39.81672556 0.16156141 -42.62304688 0.14257812 C-56.36010354 0.0983266 -69.60210313 0.93036001 -82.91796875 4.6171875 Z " fill="#010B19" transform="translate(219.48046875,41.6328125)"/>
<path d="M0 0 C1 1 1 1 1.12025452 3.20826721 C1.11803391 4.18311569 1.11581329 5.15796417 1.11352539 6.16235352 C1.11341209 7.81395226 1.11341209 7.81395226 1.11329651 9.49891663 C1.10813522 10.6968132 1.10297394 11.89470978 1.09765625 13.12890625 C1.0962413 14.34827377 1.09482635 15.5676413 1.09336853 16.82395935 C1.08774967 20.7368307 1.07519396 24.64964581 1.0625 28.5625 C1.05748743 31.20768147 1.0529241 33.85286383 1.04882812 36.49804688 C1.03777411 42.99871726 1.02101764 49.49935461 1 56 C2.98 56 4.96 56 7 56 C7 55.34 7 54.68 7 54 C9 54 11 54 13 54 C13.763125 53.95875 14.52625 53.9175 15.3125 53.875 C18.11170849 54.00519574 19.61788925 54.58837881 22 56 C22 55.34 22 54.68 22 54 C22.78890625 54.24363281 22.78890625 54.24363281 23.59375 54.4921875 C26.60423926 55.12751803 29.42418375 55.13205462 32.5 55.125 C33.6240625 55.12757813 34.748125 55.13015625 35.90625 55.1328125 C38.4720699 55.02266367 40.56266427 54.75270662 43 54 C43 54.33 43 54.66 43 55 C45.10409639 55.02701408 47.20829178 55.04640223 49.3125 55.0625 C50.48425781 55.07410156 51.65601563 55.08570313 52.86328125 55.09765625 C56.03059195 55.14899898 56.03059195 55.14899898 59 54 C59 54.66 59 55.32 59 56 C59.7734375 55.505 59.7734375 55.505 60.5625 55 C63.78562307 53.6776931 66.54918768 53.86978067 70 54 C70.33 54 70.66 54 71 54 C72.32 54 73.64 54 75 54 C75 54.66 75 55.32 75 56 C75.99 55.34 76.98 54.68 78 54 C79.32 54 80.64 54 82 54 C82.23976563 53.24203125 82.47953125 52.4840625 82.7265625 51.703125 C84.20158423 48.57209728 85.47830274 47.57848 88.375 45.75 C89.14585937 45.24984375 89.91671875 44.7496875 90.7109375 44.234375 C95.80573407 41.4870103 101.4850565 41.16404902 107.0859375 42.49609375 C113.14423677 44.55034465 117.60120121 47.45218792 120.75 53.1875 C121.36875 54.5796875 121.36875 54.5796875 122 56 C122.66 56.66 123.32 57.32 124 58 C123.34 58 122.68 58 122 58 C122.33 58.66 122.66 59.32 123 60 C123.55055637 66.88195468 121.93640691 72.06200331 118.1875 77.75 C113.79081447 82.27230512 109.24786214 85.00827585 103 86 C97.01763649 85.71160423 91.75199596 85.35869075 86.9375 81.625 C86.298125 80.75875 85.65875 79.8925 85 79 C84.236875 78.236875 83.47375 77.47375 82.6875 76.6875 C82.130625 76.130625 81.57375 75.57375 81 75 C81.33 74.34 81.66 73.68 82 73 C81.04649658 73.0707373 80.09299316 73.14147461 79.1105957 73.21435547 C65.45722343 74.13964278 51.81634607 74.15258839 38.13647461 74.13037109 C35.48047642 74.12675861 32.82467782 74.1258592 30.16870117 74.13037109 C26.29343647 74.13653473 22.41823609 74.13580826 18.54296875 74.1328125 C16.76336006 74.13584885 16.76336006 74.13584885 14.94779968 74.13894653 C13.84507217 74.13579437 12.74234467 74.13264221 11.60620117 74.12939453 C10.64123215 74.12859894 9.67626312 74.12780334 8.68205261 74.12698364 C6 74 6 74 1 73 C1 83.89 1 94.78 1 106 C21.79 106 42.58 106 64 106 C64.33 103.69 64.66 101.38 65 99 C67.5 97.1875 67.5 97.1875 70 96 C70.33 95.34 70.66 94.68 71 94 C78.38700525 91.0451979 86.01457456 91.67332578 93.8125 92.3125 C99.28084647 95.20750695 102.78097065 101.23721578 104.67578125 107.0859375 C105.73078103 113.31424944 105.47305259 118.57114593 102.3359375 124.14453125 C98.8713015 128.95652569 94.6245539 132.14760201 89 134 C81.92587312 134.90937954 75.80261376 134.32048171 70 130 C69.19846982 128.80967284 68.41707528 127.60559826 67.65380859 126.39038086 C65.50514794 123.8381543 64.37581365 123.07907023 61.0713501 122.38381958 C57.31958958 122.18936635 53.60363455 122.21204408 49.8515625 122.31640625 C48.4701082 122.32947632 47.08862126 122.33943385 45.7071228 122.34642029 C42.08621256 122.37303752 38.46729534 122.44169689 34.84716797 122.51934814 C31.14708414 122.59119937 27.44667542 122.62297792 23.74609375 122.65820312 C16.49649114 122.73308112 9.24852573 122.85240948 2 123 C1.67 126.63 1.34 130.26 1 134 C0.34 134 -0.32 134 -1 134 C-1.20625 135.27875 -1.4125 136.5575 -1.625 137.875 C-4.50275172 150.69407586 -14.0693081 160.40897668 -24.81640625 167.23828125 C-38.70451584 174.92360325 -54.43406683 175.49511458 -69.6875 171.8125 C-82.85162773 167.79173852 -93.35959877 159.87571647 -100.4296875 148.0703125 C-105.0981935 138.94233808 -108.16068052 129.43666905 -108.125 119.125 C-108.12757812 118.36445313 -108.13015625 117.60390625 -108.1328125 116.8203125 C-108 115 -108 115 -107 114 C-104.81695287 113.89982554 -102.63065588 113.86918742 -100.4453125 113.8671875 C-99.78796112 113.86623077 -99.13060974 113.86527405 -98.45333862 113.86428833 C-97.059549 113.86360655 -95.66575622 113.8654607 -94.27197266 113.86962891 C-92.14087747 113.87496028 -90.00999469 113.86969276 -87.87890625 113.86328125 C-86.5260412 113.86394237 -85.17317629 113.86522422 -83.8203125 113.8671875 C-81.96817139 113.86887939 -81.96817139 113.86887939 -80.07861328 113.87060547 C-77 114 -77 114 -74 115 C-73.87625 115.825 -73.7525 116.65 -73.625 117.5 C-72.17402658 125.62545114 -70.92875199 132.03339136 -63.9375 137.3125 C-58.04078903 140.69997226 -51.35186348 141.09933834 -44.7578125 139.43359375 C-42.64956807 138.65367948 -42.64956807 138.65367948 -40 137 C-39.67 136.01 -39.34 135.02 -39 134 C-38.01 133.67 -37.02 133.34 -36 133 C-32.62424649 126.30265591 -32.55823981 120.10526317 -32.56762695 112.70898438 C-32.5574353 111.49837341 -32.54724365 110.28776245 -32.53674316 109.04046631 C-32.51184104 105.74346142 -32.49990854 102.44672449 -32.49388909 99.14964104 C-32.48446752 95.69559862 -32.45826128 92.24168313 -32.43388367 88.78771973 C-32.39031851 82.25730712 -32.36171043 75.7269193 -32.33856028 69.19640589 C-32.31145485 61.75735255 -32.2675468 54.31842754 -32.22227156 46.87946606 C-32.12956842 31.5863768 -32.05782236 16.29326334 -32 1 C-28.99227506 0.8341842 -25.984461 0.67042415 -22.9765625 0.5078125 C-21.71307983 0.43784058 -21.71307983 0.43784058 -20.42407227 0.36645508 C-6.51388387 -0.38053617 -6.51388387 -0.38053617 0 0 Z M-29 3 C-29.00410889 6.67366699 -29.00821777 10.34733398 -29.01245117 14.13232422 C-29.02966812 26.28617589 -29.07395179 38.43978849 -29.13209057 50.59350395 C-29.16667363 57.96048129 -29.19208727 65.32727281 -29.19555664 72.69433594 C-29.1986059 79.11906429 -29.21922459 85.54346114 -29.26052457 91.96806157 C-29.28176997 95.36670915 -29.2944994 98.76488649 -29.28615379 102.16360092 C-29.28124054 105.96748684 -29.30737709 109.77001204 -29.34057617 113.57373047 C-29.33195053 114.68791855 -29.32332489 115.80210663 -29.31443787 116.95005798 C-29.43712901 125.3664036 -31.45319078 132.15762335 -37.25 138.4375 C-44.13698099 142.35055738 -51.15501332 144.34884308 -59.03125 142.53125 C-65.59158572 140.41175692 -70.42681465 136.7268546 -73.875 130.75 C-75 127 -75 127 -76 117 C-85.57 117 -95.14 117 -105 117 C-105 123.59860376 -104.78558739 128.35283255 -102.9375 134.4375 C-102.71779541 135.17323242 -102.49809082 135.90896484 -102.27172852 136.66699219 C-100.2551449 142.97844769 -97.2400758 147.90573417 -93 153 C-92.1028125 154.3303125 -92.1028125 154.3303125 -91.1875 155.6875 C-82.59467947 164.77133885 -70.78546281 169.74828173 -58.375 170.23828125 C-42.23634059 170.57187365 -29.88504113 168.70825052 -17.375 157.6875 C-16.59125 156.800625 -15.8075 155.91375 -15 155 C-14.44570312 154.37609375 -13.89140625 153.7521875 -13.3203125 153.109375 C-6.08165891 144.47269819 -1.91662741 134.62171639 -1.97705078 123.30004883 C-1.98036407 122.49360428 -1.98367737 121.68715973 -1.98709106 120.85627747 C-1.99135101 120.2437059 -1.99561096 119.63113434 -2 119 C6.78013395 118.96850322 15.55920808 118.97460153 24.33923626 119.02846622 C28.41643773 119.05230309 32.4928221 119.06327337 36.57006836 119.04467773 C40.50633975 119.02720114 44.44114446 119.0437333 48.37723732 119.08367729 C49.87747481 119.09295896 51.37783949 119.09006335 52.87802696 119.07469368 C64.6821307 118.96551772 64.6821307 118.96551772 67.99191284 121.56358337 C69.34008789 123.45898438 69.34008789 123.45898438 71 127 C75.32806168 130.50995246 80.25935721 131.66231199 85.76171875 131.38671875 C90.9222991 130.49510015 94.74714857 128.2858212 98.375 124.5625 C101.97843795 118.88015554 103.1407913 113.69594891 102 107 C99.50725986 101.57266277 96.48122062 97.56153634 91 95 C85.10662666 94.08926593 78.6991149 93.56413364 73.3125 96.4296875 C70.03781937 99.23483672 67.64675335 101.98352841 66 106 C66 106.99 66 107.98 66 109 C57.41185533 108.89265278 48.82380279 108.78005133 40.23581791 108.66066074 C36.24846784 108.60539527 32.26111048 108.55196963 28.27368164 108.50268555 C24.42868399 108.45509524 20.58377818 108.40275464 16.73888969 108.34705925 C15.26883658 108.32661143 13.79875826 108.30790244 12.32866096 108.29092598 C10.27638724 108.26693536 8.22428853 108.2368741 6.17211914 108.20532227 C5.00185684 108.18977798 3.83159454 108.1742337 2.62586975 108.15821838 C0 108 0 108 -1 107 C-1.08858646 104.26105915 -1.11523479 101.5474673 -1.09765625 98.80859375 C-1.0962413 97.98875504 -1.09482635 97.16891632 -1.09336853 96.32423401 C-1.08775289 93.69528618 -1.07519779 91.06642227 -1.0625 88.4375 C-1.05748701 86.65950643 -1.05292376 84.88151154 -1.04882812 83.10351562 C-1.03777839 78.73564455 -1.02050331 74.36783652 -1 70 C9.86615246 69.96852401 20.73157501 69.9745649 31.59765911 70.02846622 C36.64335785 70.05231737 41.68839579 70.06325788 46.73413086 70.04467773 C51.6039729 70.02722054 56.47262781 70.04369703 61.34232521 70.08367729 C63.19982671 70.09296945 65.0574309 70.09004624 66.9148922 70.07469368 C69.51839924 70.05526451 72.11815702 70.07931653 74.72143555 70.11352539 C75.4889212 70.0977092 76.25640686 70.08189301 77.04714966 70.06559753 C80.08249154 70.14231151 82.34288367 70.33530535 84.5337925 72.55148125 C85.86116028 74.43821716 85.86116028 74.43821716 86.95315266 76.31680965 C88.94124168 79.51339059 91.82623702 80.65104344 95.3125 81.6875 C101.86255822 82.44913468 106.33186748 82.65279651 112 79 C116.28612467 75.20093495 118.77143738 72.49044203 119.30078125 66.72265625 C119.30464844 65.51480469 119.30851563 64.30695313 119.3125 63.0625 C119.33763672 61.25458984 119.33763672 61.25458984 119.36328125 59.41015625 C118.90001128 55.06139621 117.51820054 52.56564431 114.5 49.453125 C108.04151579 44.27288246 102.06753331 44.26568578 94 45 C91.32697909 46.01303982 90.15352295 47.01649202 88 49 C87.443125 49.474375 86.88625 49.94875 86.3125 50.4375 C84.83549092 52.04184085 84.83549092 52.04184085 83.90971375 54.55644226 C82 57 82 57 78.52619934 57.63923645 C77.06183261 57.67148968 75.59670662 57.67613516 74.13208008 57.65942383 C73.33184921 57.66990753 72.53161835 57.68039124 71.70713806 57.69119263 C69.06087768 57.72000488 66.41592077 57.71364424 63.76953125 57.70703125 C61.93534195 57.72014261 60.1011671 57.7354451 58.26701355 57.75285339 C53.43857237 57.79278226 48.6105082 57.80289889 43.78192139 57.80688477 C38.85514837 57.81620139 33.92859826 57.85360563 29.00195312 57.88867188 C19.3346459 57.95332794 9.6675045 57.98650223 0 58 C-0.89886808 54.90206257 -1.14951549 52.08510617 -1.20532227 48.86425781 C-1.2352401 47.33312347 -1.2352401 47.33312347 -1.26576233 45.77105713 C-1.28247482 44.67613953 -1.29918732 43.58122192 -1.31640625 42.453125 C-1.33718735 41.3267865 -1.35796844 40.200448 -1.37937927 39.03997803 C-1.44474333 35.44338051 -1.50369885 31.84671023 -1.5625 28.25 C-1.6056977 25.8111904 -1.6493124 23.37238816 -1.69335938 20.93359375 C-1.80119563 14.95580265 -1.9003674 8.97795601 -2 3 C-10.91 3 -19.82 3 -29 3 Z " fill="#010B19" transform="translate(221,128)"/>
<path d="M0 0 C4.58144921 1.52714974 6.44182191 5.04178748 9 9 C11.53952313 14.42534486 12.1009143 20.38082663 10.34765625 26.14453125 C7.70162091 32.08391529 3.47510591 36.34194293 -2.390625 39.140625 C-8.20721671 41.05626898 -14.6954446 40.9543729 -20.3125 38.4375 C-23.22300205 36.76205372 -24.57837806 35.20496398 -26.34619141 32.39038086 C-28.49485206 29.8381543 -29.62418635 29.07907023 -32.9286499 28.38381958 C-36.68041042 28.18936635 -40.39636545 28.21204408 -44.1484375 28.31640625 C-45.5298918 28.32947632 -46.91137874 28.33943385 -48.2928772 28.34642029 C-51.91378744 28.37303752 -55.53270466 28.44169689 -59.15283203 28.51934814 C-62.85291586 28.59119937 -66.55332458 28.62297792 -70.25390625 28.65820312 C-77.50350886 28.73308112 -84.75147427 28.85240948 -92 29 C-92.33 32.63 -92.66 36.26 -93 40 C-93.66 40 -94.32 40 -95 40 C-95.10957031 40.59167969 -95.21914062 41.18335938 -95.33203125 41.79296875 C-96.25914403 46.41345763 -97.22351335 50.0876779 -100 54 C-100.33 53.34 -100.66 52.68 -101 52 C-99.90714937 48.9520073 -98.61198305 46.01331333 -97.32421875 43.04296875 C-95.98802899 39.51204508 -95.46465187 35.97577233 -94.91723633 32.24731445 C-94.74356033 31.07723343 -94.56988434 29.9071524 -94.39094543 28.70161438 C-94.26193344 27.81008163 -94.13292145 26.91854889 -94 26 C-85.74182246 25.93042235 -77.48376785 25.87714956 -69.22536945 25.84456348 C-65.39045657 25.82892205 -61.55574455 25.80771195 -57.72094727 25.77368164 C-54.01862304 25.74103333 -50.31649175 25.72313553 -46.61403465 25.71536827 C-45.20305533 25.70983453 -43.79208631 25.69902836 -42.38118935 25.68280983 C-40.40177373 25.66096551 -38.42216307 25.659774 -36.44262695 25.65942383 C-35.31677689 25.65276199 -34.19092682 25.64610016 -33.03096008 25.63923645 C-28.29586255 26.20283694 -25.77358452 28.20707587 -22.5 31.5625 C-18.78503837 35.18458759 -15.77242756 36.10461792 -10.6875 36.375 C-5.77781588 36.24407509 -1.95377207 34.92507572 2 32 C6.19476882 26.72964943 7.44900927 22.3111718 7.4296875 15.703125 C6.79567134 11.714587 4.85920136 9.14583248 2.41015625 6.0078125 C0.97486972 3.96421893 0.43179994 2.43775663 0 0 Z " fill="#020A16" transform="translate(315,222)"/>
<path d="M0 0 C9.57 0 19.14 0 29 0 C29 0.33 29 0.66 29 1 C20.09 1 11.18 1 2 1 C2.01047363 4.69985107 2.02094727 8.39970215 2.03173828 12.21166992 C2.06485286 24.42529086 2.08706146 36.63891109 2.10362434 48.85256481 C2.1139351 56.25891089 2.12799161 63.66521443 2.15087891 71.0715332 C2.17081892 77.52719044 2.1837179 83.98281686 2.18817699 90.43850404 C2.19078334 93.85645856 2.1969052 97.27432494 2.21146011 100.69225121 C2.22594205 104.50867349 2.22797929 108.32491216 2.22705078 112.14135742 C2.23424133 113.27352188 2.24143188 114.40568634 2.24884033 115.57215881 C2.246091 116.61397308 2.24334167 117.65578735 2.24050903 118.72917175 C2.24235262 119.63160708 2.24419621 120.53404242 2.24609566 121.46382427 C1.97308593 124.27736695 1.16329488 126.43644844 0 129 C-0.33 129 -0.66 129 -1 129 C-0.67 86.43 -0.34 43.86 0 0 Z " fill="#011430" transform="translate(190,130)"/>
<path d="M0 0 C-0.66 0.66 -1.32 1.32 -2 2 C-2.99 1.505 -2.99 1.505 -4 1 C-14.1788126 -0.17127249 -14.1788126 -0.17127249 -23.25 3.5625 C-26.41408066 6.70106388 -27.09260537 9.54941253 -29 14 C-50.78 14 -72.56 14 -95 14 C-95 13.67 -95 13.34 -95 13 C-73.65741634 12.28826506 -52.35590531 11.83913155 -31 12 C-30.82984375 10.07800781 -30.82984375 10.07800781 -30.65625 8.1171875 C-30.46289062 5.93310547 -30.46289062 5.93310547 -30 4 C-27.5 2.125 -27.5 2.125 -25 1 C-24.67 0.34 -24.34 -0.32 -24 -1 C-16.2297967 -4.10808132 -7.04588434 -4.89082448 0 0 Z " fill="#010F24" transform="translate(316,223)"/>
<path d="M0 0 C21.12 0 42.24 0 64 0 C64.99 1.98 64.99 1.98 66 4 C65.01 3.505 65.01 3.505 64 3 C62.02893455 2.9086334 60.05472084 2.88248032 58.08154297 2.88647461 C56.21983963 2.88658791 56.21983963 2.88658791 54.32052612 2.88670349 C52.96107951 2.8918105 51.60163331 2.8970265 50.2421875 2.90234375 C48.85499116 2.90420858 47.46779416 2.90563218 46.08059692 2.90663147 C42.42765488 2.91045152 38.77475252 2.92027745 35.12182617 2.93133545 C31.39502499 2.94156056 27.66821741 2.94613145 23.94140625 2.95117188 C16.62758606 2.96190017 9.31379859 2.97897046 2 3 C1.67 6.63 1.34 10.26 1 14 C0.34 14 -0.32 14 -1 14 C-1.16435547 14.88751953 -1.16435547 14.88751953 -1.33203125 15.79296875 C-2.25914403 20.41345763 -3.22351335 24.0876779 -6 28 C-6.33 27.34 -6.66 26.68 -7 26 C-5.90714937 22.9520073 -4.61198305 20.01331333 -3.32421875 17.04296875 C-1.52260145 11.54245574 -0.88011387 5.72074015 0 0 Z " fill="#000309" transform="translate(221,248)"/>
<path d="M0 0 C0.99 0.99 0.99 0.99 2 2 C-1.39460265 3.62757993 -4.79089394 5.25160566 -8.1875 6.875 C-9.14720703 7.33519531 -10.10691406 7.79539062 -11.09570312 8.26953125 C-12.02705078 8.71425781 -12.95839844 9.15898437 -13.91796875 9.6171875 C-15.19837036 10.22989502 -15.19837036 10.22989502 -16.50463867 10.85498047 C-23.35863539 14 -23.35863539 14 -27 14 C-27 14.66 -27 15.32 -27 16 C-31.04395163 17.44857969 -34.87394821 18.40336115 -39.125 19 C-43.51873962 19.63053667 -47.88281154 20.33198112 -52.25 21.125 C-57.27026276 21.96392985 -61.91454979 22.32809356 -67 22 C-67.66 21.34 -68.32 20.68 -69 20 C-68.15127319 19.91866821 -68.15127319 19.91866821 -67.28540039 19.83569336 C-43.11417602 17.39799452 -21.51643817 11.33979081 0 0 Z " fill="#031126" transform="translate(262,363)"/>
<path d="M0 0 C3.69988632 2.10220814 4.80188875 3.31899258 6 7.4375 C6 11.40316899 5.44976383 12.93779521 3 16 C-0.51253146 18.34168764 -1.86469356 18.49623677 -6 18 C-8.69990662 16.20006226 -10.5418865 14.916227 -12 12 C-12.375 9.1875 -12.375 9.1875 -12 6 C-8.33045643 1.65448788 -5.77714104 -0.67176059 0 0 Z M-7 5 C-7 5.99 -7 6.98 -7 8 C-7.66 8 -8.32 8 -9 8 C-9.36050506 11.78595012 -9.36050506 11.78595012 -7.875 13.75 C-5.11135311 15.59243126 -3.24243237 15.47285472 0 15 C2.0785608 13.42304368 2.0785608 13.42304368 3 11 C3.08024658 8.40110217 3.08024658 8.40110217 2 6 C-1.5761443 2.65457469 -2.81607055 2.2107137 -7 5 Z " fill="#03142D" transform="translate(325,182)"/>
<path d="M0 0 C22.44 0 44.88 0 68 0 C68.99 1.98 68.99 1.98 70 4 C69.20580658 3.51486435 69.20580658 3.51486435 68.39556885 3.01992798 C65.36537353 1.72980393 62.9638948 1.720046 59.67089844 1.68115234 C58.38987244 1.66128265 57.10884644 1.64141296 55.78900146 1.62094116 C54.3957944 1.60906564 53.0025855 1.59740273 51.609375 1.5859375 C50.1801848 1.56722168 48.75100559 1.54764795 47.32183838 1.5272522 C43.56708264 1.47596852 39.81229108 1.43632284 36.05737305 1.39910889 C32.2230547 1.35904551 28.38888483 1.30796385 24.5546875 1.2578125 C17.03656028 1.16109785 9.5183611 1.07667899 2 1 C2.02054443 2.87196045 2.02054443 2.87196045 2.04150391 4.78173828 C2.15509119 15.1315444 -2.21867873 24.63635523 -8 33 C-8.66 32.34 -9.32 31.68 -10 31 C-9.51080078 30.27296875 -9.51080078 30.27296875 -9.01171875 29.53125 C-2.58499855 19.67315412 -1.640821 12.30615751 0 0 Z " fill="#01132E" transform="translate(219,247)"/>
<path d="M0 0 C4.25331827 0.86802414 6.18199992 2.40158324 9.0625 5.625 C9.76304403 9.618101 9.74001812 11.59517246 7.5 15 C4.1875277 17.20831487 2.04971529 17.69374509 -1.9375 17.625 C-5.375 15.625 -5.375 15.625 -7.9375 12.625 C-8.625 9.125 -8.625 9.125 -7.9375 5.625 C-5.51605492 2.27770827 -4.06319154 0.86450884 0 0 Z M1.0625 3.625 C1.0625 4.285 1.0625 4.945 1.0625 5.625 C0.44375 5.41875 -0.175 5.2125 -0.8125 5 C-1.864375 4.814375 -1.864375 4.814375 -2.9375 4.625 C-3.5975 5.285 -4.2575 5.945 -4.9375 6.625 C-4.61423447 10.22179066 -4.61423447 10.22179066 -3.9375 13.625 C0.67259488 14.79508745 0.67259488 14.79508745 5 13.5 C6.45497229 10.93240185 6.64263321 9.52566607 6.0625 6.625 C3.65391286 4.7625562 3.65391286 4.7625562 1.0625 3.625 Z " fill="#021228" transform="translate(303.9375,231.375)"/>
<path d="M0 0 C0.90105469 0.00902344 1.80210937 0.01804687 2.73046875 0.02734375 C3.41753906 0.03894531 4.10460937 0.05054688 4.8125 0.0625 C4.48947842 4.58480216 3.40014868 6.89297105 0.34375 10.20703125 C-2.35861509 13.48158079 -4.38737531 17.21613458 -6.5390625 20.8671875 C-7.35503906 21.95386719 -7.35503906 21.95386719 -8.1875 23.0625 C-9.1775 23.0625 -10.1675 23.0625 -11.1875 23.0625 C-10.37345703 21.75925781 -10.37345703 21.75925781 -9.54296875 20.4296875 C-8.82017608 19.2657097 -8.09752752 18.10164241 -7.375 16.9375 C-7.01857422 16.36773437 -6.66214844 15.79796875 -6.29492188 15.2109375 C-4.02975597 11.55342191 -2.12261393 7.93272785 -0.1875 4.0625 C-14.3775 3.7325 -28.5675 3.4025 -43.1875 3.0625 C-43.1875 2.7325 -43.1875 2.4025 -43.1875 2.0625 C-42.14295654 2.03744385 -41.09841309 2.0123877 -40.0222168 1.98657227 C-36.14757984 1.89241461 -32.27311866 1.79221428 -28.39868164 1.69018555 C-26.72164013 1.64686833 -25.04455542 1.60519093 -23.36743164 1.56518555 C-20.95706159 1.50740515 -18.5469083 1.4437332 -16.13671875 1.37890625 C-15.38662033 1.36219376 -14.63652191 1.34548126 -13.86369324 1.32826233 C-9.06819068 1.19172072 -4.78979457 -0.06220512 0 0 Z " fill="#010F23" transform="translate(327.1875,291.9375)"/>
<path d="M0 0 C-2.16501904 3.24752856 -3.69044312 4.07549996 -7 6 C-19.0536819 15.27527689 -28.32160035 27.99538651 -36 41 C-36.33 40.34 -36.66 39.68 -37 39 C-35.70703125 36.57421875 -35.70703125 36.57421875 -33.8125 33.6875 C-33.20019531 32.74261719 -32.58789062 31.79773438 -31.95703125 30.82421875 C-30 28 -30 28 -27.82421875 25.39453125 C-25.90699661 23.22577817 -25.90699661 23.22577817 -25.5703125 21.0546875 C-24.64842246 17.73335763 -22.19505861 15.56897866 -19.875 13.125 C-19.37726074 12.59342285 -18.87952148 12.0618457 -18.36669922 11.51416016 C-5.06808071 -2.53404035 -5.06808071 -2.53404035 0 0 Z " fill="#010A16" transform="translate(106,106)"/>
<path d="M0 0 C6 2 6 2 7.98046875 2.6953125 C14.22828421 4.85758015 20.57177758 6.46636318 27 8 C27 8.33 27 8.66 27 9 C34.98542191 10.37679688 42.05684111 9.35955592 50 8 C51.13050781 7.81179688 52.26101562 7.62359375 53.42578125 7.4296875 C54.27527344 7.28789062 55.12476563 7.14609375 56 7 C51.66436218 11.33563782 43.83839958 11.85062214 37.85449219 12.08349609 C24.4144677 12.02616325 12.3715884 9.53210376 1 2 C0.67 1.34 0.34 0.68 0 0 Z " fill="#01070F" transform="translate(134,290)"/>
<path d="M0 0 C6.625 -0.25 6.625 -0.25 10 2 C5.545 2.495 5.545 2.495 1 3 C1 14.55 1 26.1 1 38 C0.34 37.67 -0.32 37.34 -1 37 C-1.0246826 32.05208706 -1.04285166 27.1042098 -1.05493164 22.15625 C-1.05996653 20.47232438 -1.06679481 18.78840314 -1.07543945 17.10449219 C-1.08754196 14.68683797 -1.09323668 12.26924144 -1.09765625 9.8515625 C-1.10281754 9.0963028 -1.10797882 8.34104309 -1.11329651 7.56289673 C-1.11387171 2.22774341 -1.11387171 2.22774341 0 0 Z " fill="#01142F" transform="translate(220,198)"/>
<path d="M0 0 C0.33 0 0.66 0 1 0 C2.56014566 6.24058266 3.4496066 12.44356816 4.17260742 18.82519531 C4.84643239 24.45074287 6.04531849 29.85171076 7.51171875 35.328125 C7.9991507 37.99535264 7.89585968 39.47475796 7 42 C4.63624965 39.63624965 4.53621922 38.54537012 3.96484375 35.30859375 C3.71057617 33.89030273 3.71057617 33.89030273 3.45117188 32.44335938 C3.28166016 31.45142578 3.11214844 30.45949219 2.9375 29.4375 C2.76412109 28.47263672 2.59074219 27.50777344 2.41210938 26.51367188 C0.84322183 17.61128702 -0.14350992 9.04112497 0 0 Z " fill="#02132A" transform="translate(13,222)"/>
<path d="M0 0 C12.87 0 25.74 0 39 0 C36.10170302 2.89829698 33.10294371 2.31638328 29.21875 2.34375 C28.44946167 2.3583728 27.68017334 2.37299561 26.88757324 2.38806152 C23.59009325 2.45043589 20.2924237 2.4899615 16.99462891 2.53173828 C14.58996754 2.56541967 12.18570793 2.61054553 9.78125 2.65625 C9.0322644 2.6615271 8.28327881 2.6668042 7.51159668 2.67224121 C3.29733424 2.61427025 3.29733424 2.61427025 0 5 C0 3.35 0 1.7 0 0 Z " fill="#01060E" transform="translate(282,292)"/>
<path d="M0 0 C0.33 0.66 0.66 1.32 1 2 C-3.22531789 8.11458389 -7.73597767 12.95559074 -13.8125 17.1875 C-14.37541748 17.58573975 -14.93833496 17.98397949 -15.51831055 18.39428711 C-17.14453125 19.48046875 -17.14453125 19.48046875 -20 21 C-20.99 20.67 -21.98 20.34 -23 20 C-18.25 17 -18.25 17 -16 17 C-16 16.01 -16 15.02 -16 14 C-14.3128813 12.77601192 -12.6192569 11.55919284 -10.8828125 10.40625 C-8.9780537 8.98360857 -7.65398024 7.54913959 -6.1875 5.6875 C-5.465625 4.800625 -4.74375 3.91375 -4 3 C-3.34 3 -2.68 3 -2 3 C-1.34 2.01 -0.68 1.02 0 0 Z " fill="#010A14" transform="translate(213,276)"/>
<path d="M0 0 C0.78375 0.185625 1.5675 0.37125 2.375 0.5625 C2.91125 0.706875 3.4475 0.85125 4 1 C4.80253125 4.7208267 5.2310401 7.27607436 4.0625 10.9375 C1.65553298 13.34446702 1.07986379 13.3009136 -2.1875 13.3125 C-4.0746875 13.1578125 -4.0746875 13.1578125 -6 13 C-6 12.67 -6 12.34 -6 12 C-4.02 11.34 -2.04 10.68 0 10 C0.33 8.02 0.66 6.04 1 4 C-0.75244247 2.3516367 -0.75244247 2.3516367 -3 1 C-5.1935345 0.9853761 -5.1935345 0.9853761 -7 2 C-7.33 2.99 -7.66 3.98 -8 5 C-8.66 5 -9.32 5 -10 5 C-10.33 6.32 -10.66 7.64 -11 9 C-11.3125 6.25 -11.3125 6.25 -11 3 C-7.40342986 -1.12547751 -5.15485586 -1.42581119 0 0 Z " fill="#010F22" transform="translate(326,185)"/>
<path d="M0 0 C1.25159912 0.00523682 2.50319824 0.01047363 3.79272461 0.01586914 C4.78942421 0.01799156 4.78942421 0.01799156 5.80625916 0.02015686 C7.93590735 0.02577021 10.06545175 0.03832485 12.19506836 0.05102539 C13.63582205 0.05603868 15.07657739 0.06060188 16.51733398 0.06469727 C20.05577938 0.07574394 23.59416375 0.09301747 27.13256836 0.11352539 C27.13256836 0.44352539 27.13256836 0.77352539 27.13256836 1.11352539 C22.51256836 1.44352539 17.89256836 1.77352539 13.13256836 2.11352539 C13.13256836 2.44352539 13.13256836 2.77352539 13.13256836 3.11352539 C8.18256836 3.11352539 3.23256836 3.11352539 -1.86743164 3.11352539 C-2.19743164 5.42352539 -2.52743164 7.73352539 -2.86743164 10.11352539 C-3.19743164 10.11352539 -3.52743164 10.11352539 -3.86743164 10.11352539 C-3.8943238 8.63445647 -3.91377786 7.15525056 -3.92993164 5.67602539 C-3.9415332 4.85231445 -3.95313477 4.02860352 -3.96508789 3.17993164 C-3.81084304 -0.08388937 -3.31039747 0.13106299 0 0 Z " fill="#00050D" transform="translate(116.867431640625,241.886474609375)"/>
<path d="M0 0 C8.0853288 2.93846035 15.50412838 6.81735063 23 11 C22.34 11.66 21.68 12.32 21 13 C13.16901408 11.04225352 13.16901408 11.04225352 10 8 C10 7.34 10 6.68 10 6 C9.37351563 5.80664062 8.74703125 5.61328125 8.1015625 5.4140625 C7.28429687 5.15367188 6.46703125 4.89328125 5.625 4.625 C4.81289062 4.36976562 4.00078125 4.11453125 3.1640625 3.8515625 C1 3 1 3 -1 1 C-0.67 0.67 -0.34 0.34 0 0 Z " fill="#020F21" transform="translate(229,88)"/>
<path d="M0 0 C0.66 0 1.32 0 2 0 C0.21455503 3.87007261 -2.1148408 7.37658953 -4.4375 10.9375 C-5.22859658 12.15447239 -6.01897468 13.37191217 -6.80859375 14.58984375 C-7.18483887 15.16718262 -7.56108398 15.74452148 -7.94873047 16.33935547 C-8.90107013 17.8437248 -9.78501254 19.39085751 -10.66015625 20.94140625 C-11.10230469 21.62074219 -11.54445313 22.30007812 -12 23 C-12.66 23 -13.32 23 -14 23 C-11.84781294 17.12654369 -8.43615942 12.1912667 -5 7 C-4.505 6.25105469 -4.01 5.50210938 -3.5 4.73046875 C-2.3922544 3.11170956 -1.20424442 1.54831425 0 0 Z " fill="#02132A" transform="translate(79,127)"/>
<path d="M0 0 C2.69771806 0.73174993 5.39458306 1.46626928 8.08984375 2.20703125 C9.80786627 2.67516356 11.52836492 3.13460943 13.25390625 3.57421875 C14.85225486 3.99132434 16.4295119 4.48788432 18 5 C18.33 5.66 18.66 6.32 19 7 C21.11327425 7.90725434 21.11327425 7.90725434 23.5625 8.625 C24.38878906 8.88539063 25.21507812 9.14578125 26.06640625 9.4140625 C26.70449219 9.60742188 27.34257812 9.80078125 28 10 C24.30746782 11.35983608 22.20942375 10.61867539 18.61328125 9.19921875 C17.59298828 8.79896484 16.57269531 8.39871094 15.52148438 7.98632812 C14.46251953 7.55771484 13.40355469 7.12910156 12.3125 6.6875 C11.24193359 6.27048828 10.17136719 5.85347656 9.06835938 5.42382812 C1.13475094 2.26950188 1.13475094 2.26950188 0 0 Z " fill="#00050B" transform="translate(106,369)"/>
<path d="M0 0 C0.99 0.33 1.98 0.66 3 1 C3.15855469 2.49853516 3.15855469 2.49853516 3.3203125 4.02734375 C3.90559168 8.10889593 5.28593967 11.7758855 6.875 15.5625 C7.13152344 16.19607422 7.38804688 16.82964844 7.65234375 17.48242188 C8.89150478 20.50560117 10.21265287 23.39647946 11.7578125 26.27734375 C13 29 13 29 12 32 C8.22738666 25.46812901 5.15149681 19.22288216 3 12 C2.19035381 9.64602868 1.37200185 7.29526683 0.55078125 4.9453125 C0 3 0 3 0 0 Z " fill="#010409" transform="translate(18,262)"/>
<path d="M0 0 C4.10555424 -0.48875646 5.78919032 -0.12882814 9.375 2.0625 C12 5 12 5 12.5 8.6875 C12 12 12 12 10 14 C9 11 9 11 9.125 7.9375 C9.063125 6.4834375 9.063125 6.4834375 9 5 C5.75073878 2.83382585 5.4014758 2.78664331 1.8125 3.375 C0.554375 3.58125 -0.70375 3.7875 -2 4 C-1.34 2.68 -0.68 1.36 0 0 Z " fill="#03132A" transform="translate(301,232)"/>
<path d="M0 0 C0.66 0 1.32 0 2 0 C1.5875 1.216875 1.175 2.43375 0.75 3.6875 C-1.27658936 9.75757149 -3.13608633 15.87841551 -5 22 C-5.66 21.67 -6.32 21.34 -7 21 C-5.62820313 13.51747162 -3.07836721 6.94395046 0 0 Z " fill="#02132B" transform="translate(63,153)"/>
<path d="M0 0 C0.33 0 0.66 0 1 0 C1.68094206 5.16134346 -0.57532194 8.19188 -3.3125 12.3125 C-3.71662109 12.95767578 -4.12074219 13.60285156 -4.53710938 14.26757812 C-5.73828125 16.11328125 -5.73828125 16.11328125 -8 19 C-8.99 19 -9.98 19 -11 19 C-10.45730469 18.13117188 -9.91460937 17.26234375 -9.35546875 16.3671875 C-8.63267608 15.2032097 -7.91002752 14.03914241 -7.1875 12.875 C-6.83107422 12.30523437 -6.47464844 11.73546875 -6.10742188 11.1484375 C-3.86064801 7.52061915 -1.85175281 3.84370141 0 0 Z " fill="#02132A" transform="translate(327,296)"/>
<path d="M0 0 C0 0.99 0 1.98 0 3 C-3.82320557 4.42258812 -6.91281305 5.24042276 -11 5 C-11 4.01 -11 3.02 -11 2 C-7.12315913 0.80712589 -4.08378077 0 0 0 Z " fill="#010C1A" transform="translate(235,376)"/>
<path d="M0 0 C0.99 0 1.98 0 3 0 C4.66666667 1.66666667 6.33333333 3.33333333 8 5 C10.66533035 6.319018 10.66533035 6.319018 13 7 C13 7.66 13 8.32 13 9 C4.8547549 7.83390722 4.8547549 7.83390722 1.4375 4.5 C0 2 0 2 0 0 Z " fill="#030C1B" transform="translate(287,251)"/>
<path d="M0 0 C0.92941406 0.09023437 1.85882813 0.18046875 2.81640625 0.2734375 C5.09344604 0.57885267 7.22681478 1.01120975 9.4375 1.625 C9.4375 2.285 9.4375 2.945 9.4375 3.625 C2.8375 2.965 -3.7625 2.305 -10.5625 1.625 C-10.5625 1.295 -10.5625 0.965 -10.5625 0.625 C-6.86364698 -0.27453957 -3.7807026 -0.38911265 0 0 Z " fill="#021126" transform="translate(200.5625,80.375)"/>
<path d="M0 0 C0.33 0.66 0.66 1.32 1 2 C1.99 2.33 2.98 2.66 4 3 C5.84060678 5.86316611 6.41869053 8.67823159 7 12 C7.32483418 13.33542939 7.6550855 14.66961551 8 16 C3.76137384 12.51827137 1.76297954 8.09201006 0 3 C0 2.01 0 1.02 0 0 Z " fill="#010914" transform="translate(117,265)"/>
<path d="M0 0 C2 2 2 2 2.125 5.125 C2.08375 6.07375 2.0425 7.0225 2 8 C1.5978125 7.1028125 1.5978125 7.1028125 1.1875 6.1875 C0.01506533 4.02775192 -1.19369282 2.64209744 -3 1 C-4.98 1.66 -6.96 2.32 -9 3 C-9.33 4.65 -9.66 6.3 -10 8 C-10.33 8 -10.66 8 -11 8 C-11.48038431 2.59567654 -11.48038431 2.59567654 -9.4375 0.0625 C-5.97590475 -1.44640049 -3.61452199 -0.8701627 0 0 Z " fill="#000305" transform="translate(309,235)"/>
<path d="M0 0 C4.23059921 1.37954322 4.23059921 1.37954322 5.875 3.9375 C6.0625 6.625 6.0625 6.625 5.875 8.9375 C5.6275 8.339375 5.38 7.74125 5.125 7.125 C3.66635125 4.57236469 2.43873318 3.37017442 -0.125 1.9375 C-2.3185345 1.9228761 -2.3185345 1.9228761 -4.125 2.9375 C-4.455 3.9275 -4.785 4.9175 -5.125 5.9375 C-5.785 5.9375 -6.445 5.9375 -7.125 5.9375 C-7.455 7.2575 -7.785 8.5775 -8.125 9.9375 C-8.4375 7.1875 -8.4375 7.1875 -8.125 3.9375 C-5.43583153 0.85286557 -4.12776368 -0.08255527 0 0 Z " fill="#000307" transform="translate(323.125,184.0625)"/>
<path d="M0 0 C6.435 2.97 6.435 2.97 13 6 C13 6.66 13 7.32 13 8 C7.547001 6.43181728 3.23513217 4.96189783 -1 1 C-0.67 0.67 -0.34 0.34 0 0 Z " fill="#031128" transform="translate(104,365)"/>
<path d="M0 0 C1.15048828 -0.03867188 1.15048828 -0.03867188 2.32421875 -0.078125 C3.30841797 0.08429688 3.30841797 0.08429688 4.3125 0.25 C4.9725 1.24 5.6325 2.23 6.3125 3.25 C5.3225 3.745 5.3225 3.745 4.3125 4.25 C3.6525 3.92 2.9925 3.59 2.3125 3.25 C0.2750237 3.02141886 -1.76790303 2.83975722 -3.8125 2.6875 C-5.45605469 2.56181641 -5.45605469 2.56181641 -7.1328125 2.43359375 C-7.97585938 2.37300781 -8.81890625 2.31242188 -9.6875 2.25 C-9.6875 1.92 -9.6875 1.59 -9.6875 1.25 C-6.45795351 0.41656865 -3.32170868 0.10715189 0 0 Z " fill="#021228" transform="translate(309.6875,220.75)"/>
<path d="M0 0 C2 2 2 2 2.125 4.625 C2.08375 5.40875 2.0425 6.1925 2 7 C2.66 7.33 3.32 7.66 4 8 C3.34 8 2.68 8 2 8 C2 8.99 2 9.98 2 11 C1.01 11.33 0.02 11.66 -1 12 C-0.67 8.04 -0.34 4.08 0 0 Z " fill="#020E1F" transform="translate(55,174)"/>
<path d="M0 0 C-1.20623544 3.61870631 -1.9824595 3.83676255 -5.25 5.5625 C-6.05824219 5.99046875 -6.86648438 6.4184375 -7.69921875 6.859375 C-10.08972121 8.04447979 -12.48452855 9.10741336 -15 10 C-11.63672231 6.19803392 -5.34781299 0 0 0 Z " fill="#000204" transform="translate(281,354)"/>
<path d="M0 0 C1.32 0 2.64 0 4 0 C4.77403558 4.06368679 5.0984702 7.86425173 5 12 C3.5 10.9375 3.5 10.9375 2 9 C1.95907063 6.66702567 1.95758277 4.33294775 2 2 C1.34 1.34 0.68 0.68 0 0 Z " fill="#000712" transform="translate(143,243)"/>
<path d="M0 0 C2.03448779 0.41740567 4.05401678 0.90895178 6.0625 1.4375 C7.71958984 1.86869141 7.71958984 1.86869141 9.41015625 2.30859375 C10.26480469 2.53675781 11.11945313 2.76492188 12 3 C11.34 3.66 10.68 4.32 10 5 C7.90625 4.828125 7.90625 4.828125 5.5 4.25 C4.30890625 3.97929687 4.30890625 3.97929687 3.09375 3.703125 C1 3 1 3 -1 1 C-0.67 0.67 -0.34 0.34 0 0 Z " fill="#041328" transform="translate(124,374)"/>
<path d="M0 0 C0.51046875 0.66515625 1.0209375 1.3303125 1.546875 2.015625 C0.886875 2.675625 0.226875 3.335625 -0.453125 4.015625 C-1.113125 3.025625 -1.773125 2.035625 -2.453125 1.015625 C-5.79926012 0.42874716 -5.79926012 0.42874716 -9.578125 0.328125 C-10.85945313 0.26238281 -12.14078125 0.19664062 -13.4609375 0.12890625 C-14.44835937 0.09152344 -15.43578125 0.05414063 -16.453125 0.015625 C-16.453125 -0.314375 -16.453125 -0.644375 -16.453125 -0.984375 C-14.20621023 -1.2607335 -11.95527658 -1.50456361 -9.703125 -1.734375 C-8.45015625 -1.87359375 -7.1971875 -2.0128125 -5.90625 -2.15625 C-2.453125 -1.984375 -2.453125 -1.984375 0 0 Z " fill="#05152E" transform="translate(305.453125,199.984375)"/>
<path d="M0 0 C4.56454251 0.54339792 7.9728176 1.79463821 12 4 C8.20350022 5.26549993 6.69391563 4.30826178 3 3 C2.01 3 1.02 3 0 3 C0 2.01 0 1.02 0 0 Z " fill="#000204" transform="translate(227,90)"/>
<path d="M0 0 C0.66 0.33 1.32 0.66 2 1 C-0.79374529 5.19061794 -4.54191691 6.85351555 -9 9 C-9 8.34 -9 7.68 -9 7 C-7.03125 5.2734375 -7.03125 5.2734375 -4.5 3.375 C-3.6646875 2.74335937 -2.829375 2.11171875 -1.96875 1.4609375 C-1.3190625 0.97882813 -0.669375 0.49671875 0 0 Z " fill="#000204" transform="translate(104,105)"/>
<path d="M0 0 C2.875 0.6875 2.875 0.6875 6 2 C7.375 4.625 7.375 4.625 8 7 C4.2047869 5.50902342 2.38957269 3.24299151 0 0 Z " fill="#01070F" transform="translate(70,344)"/>
<path d="M0 0 C0.6875 1.8125 0.6875 1.8125 1 4 C-0.4375 5.75 -0.4375 5.75 -2 7 C-2.99 6.67 -3.98 6.34 -5 6 C-3.35 4.02 -1.7 2.04 0 0 Z " fill="#020B19" transform="translate(301,333)"/>
<path d="M0 0 C2.38672669 2.96283313 4.7353371 5.94270509 7 9 C6.01 9 5.02 9 4 9 C4 8.34 4 7.68 4 7 C3.34 7 2.68 7 2 7 C1.01 5.02 0.02 3.04 -1 1 C-0.67 0.67 -0.34 0.34 0 0 Z " fill="#02132B" transform="translate(123,274)"/>
<path d="M0 0 C0.66 0.99 1.32 1.98 2 3 C0 5 0 5 -3.125 5.125 C-4.548125 5.063125 -4.548125 5.063125 -6 5 C-6.33 4.34 -6.66 3.68 -7 3 C-3.535 2.505 -3.535 2.505 0 2 C0 1.34 0 0.68 0 0 Z " fill="#010B16" transform="translate(309,243)"/>
<path d="M0 0 C0.33 1.32 0.66 2.64 1 4 C2.32 4.33 3.64 4.66 5 5 C5 5.66 5 6.32 5 7 C3.35 6.67 1.7 6.34 0 6 C-0.38218767 4.34385343 -0.71395102 2.67542976 -1 1 C-0.67 0.67 -0.34 0.34 0 0 Z " fill="#010E1F" transform="translate(314,190)"/>
<path d="M0 0 C3.3 0.33 6.6 0.66 10 1 C9.67 1.99 9.34 2.98 9 4 C6.03 3.01 3.06 2.02 0 1 C0 0.67 0 0.34 0 0 Z " fill="#021023" transform="translate(126,333)"/>
<path d="M0 0 C0.66 0.33 1.32 0.66 2 1 C0.515 4.96 0.515 4.96 -1 9 C-1.33 9 -1.66 9 -2 9 C-2 6.69 -2 4.38 -2 2 C-1.34 2 -0.68 2 0 2 C0 1.34 0 0.68 0 0 Z " fill="#021126" transform="translate(24,145)"/>
<path d="M0 0 C1.98 0 3.96 0 6 0 C6 0.33 6 0.66 6 1 C4.02 1 2.04 1 0 1 C0 0.67 0 0.34 0 0 Z " fill="#000000" transform="translate(267,182)"/>
<path d="M0 0 C0.66 0 1.32 0 2 0 C2 0.66 2 1.32 2 2 C1.34 2 0.68 2 0 2 C0 1.34 0 0.68 0 0 Z " fill="#000000" transform="translate(29,120)"/>
<path d="M0 0 C0.33 0.66 0.66 1.32 1 2 C0.34 1.67 -0.32 1.34 -1 1 C-0.67 0.67 -0.34 0.34 0 0 Z " fill="#000000" transform="translate(326,191)"/>
<path d="M0 0 C2 1 2 1 2 1 Z " fill="#000000" transform="translate(236,327)"/>
<path d="M0 0 C2 1 2 1 2 1 Z " fill="#000000" transform="translate(109,319)"/>
<path d="M0 0 C2 1 2 1 2 1 Z " fill="#000000" transform="translate(29,301)"/>
<path d="M0 0 C2 1 2 1 2 1 Z " fill="#000000" transform="translate(228,251)"/>
<path d="M0 0 C2 1 2 1 2 1 Z " fill="#000000" transform="translate(116,240)"/>
<path d="M0 0 C2 1 2 1 2 1 Z " fill="#000000" transform="translate(228,230)"/>
<path d="M0 0 C2 1 2 1 2 1 Z " fill="#000000" transform="translate(304,218)"/>
<path d="M0 0 C2 1 2 1 2 1 Z " fill="#000000" transform="translate(228,203)"/>
<path d="M0 0 C2 1 2 1 2 1 Z " fill="#000000" transform="translate(319,195)"/>
<path d="M0 0 C2 1 2 1 2 1 Z " fill="#000000" transform="translate(252,182)"/>
<path d="M0 0 C2 1 2 1 2 1 Z " fill="#000000" transform="translate(309,167)"/>
<path d="M0 0 C2 1 2 1 2 1 Z " fill="#000000" transform="translate(30,118)"/>
<path d="M0 0 C2 1 2 1 2 1 Z " fill="#000000" transform="translate(228,107)"/>
<path d="M0 0 C2 1 2 1 2 1 Z " fill="#000000" transform="translate(45,96)"/>
<path d="M0 0 C2 1 2 1 2 1 Z " fill="#000000" transform="translate(49,94)"/>
<path d="M0 0 C2 1 2 1 2 1 Z " fill="#000000" transform="translate(240,46)"/>
<path d="M0 0 C2 1 2 1 2 1 Z " fill="#000000" transform="translate(123,46)"/>
<path d="M0 0 C2 1 2 1 2 1 Z " fill="#000000" transform="translate(166,38)"/>
<path d="M0 0 C2 1 2 1 2 1 Z " fill="#000000" transform="translate(163,38)"/>
<path d="" fill="#000000" transform="translate(0,0)"/>
</svg>
